<svg width="1000" height="1000" viewBox="0 0 1000 1000" fill="none" xmlns="http://www.w3.org/2000/svg">
<path d="M499.641 946.734C380.276 946.734 267.875 900.271 183.531 815.75C99.0104 731.406 52.5521 619.01 52.5521 499.641C52.5521 380.276 99.0104 267.875 183.531 183.531C267.875 99.0104 380.276 52.5521 499.641 52.5521C619.01 52.5521 731.406 99.0104 815.75 183.531C900.271 268.057 946.734 380.276 946.734 499.641C946.734 619.01 900.271 731.406 815.75 815.75C731.406 900.271 619.01 946.734 499.641 946.734ZM499.641 79.3541C387.422 79.3541 281.812 123.135 202.474 202.474C123.135 281.812 79.3541 387.422 79.3541 499.641C79.3541 611.859 123.135 717.469 202.474 796.807C281.812 876.151 387.422 919.927 499.641 919.927C611.859 919.927 717.469 876.151 796.807 796.807C876.151 717.469 919.927 611.859 919.927 499.641C919.927 387.422 876.151 281.812 796.807 202.474C717.469 123.135 611.859 79.3541 499.641 79.3541Z" fill="black"/>
<path d="M545 68L500 172L455 68H545Z" fill="black"/>
</svg>
